<svg width="250" height="110" viewBox="0 0 250 110" fill="none" xmlns="http://www.w3.org/2000/svg">
<path d="M79.5108 21.5415H102.578L70.8846 75.7215C66.2323 82.8938 61.2892 89 50.7246 89H23.8769V21.5415H45.0062V67.9677H47.9138C50.7246 67.9677 52.6631 66.9015 54.4077 63.9938C54.5046 63.8969 54.5046 63.8 54.6015 63.7031L79.5108 21.5415Z" fill="white"/>
<path d="M133.124 19.8938C156.677 19.8938 168.598 32.7846 168.598 55.3677C168.598 77.9508 156.677 90.8415 133.124 90.8415C109.669 90.8415 97.7474 77.9508 97.7474 55.3677C97.7474 32.8815 109.669 19.8938 133.124 19.8938ZM133.124 70.2938C141.46 70.2938 145.918 64.4785 145.918 55.3677C145.918 46.2569 141.46 41.4108 133.124 41.4108C124.886 41.4108 120.427 46.3538 120.427 55.3677C120.427 64.3815 124.886 70.2938 133.124 70.2938Z" fill="white"/>
<path d="M208.995 54.3015L229.349 89H206.185L197.268 74.3646L188.545 89H165.186L185.249 54.7862L165.186 21.5415H188.932L196.977 34.82L204.828 21.5415H228.38L208.995 54.3015Z" fill="white"/>
<path fill-rule="evenodd" clip-rule="evenodd" d="M225 110H25C11.6236 110 0.702643 99.4945 0.0341797 86.2842L0 85L0 25C3.22139e-06 11.1929 11.1929 2.0133e-07 25 0H225L226.284 0.0341797C239.494 0.702646 250 11.6236 250 25V85L249.966 86.2842C249.319 99.0691 239.069 109.319 226.284 109.966L225 110ZM225 100H25C16.7157 100 10 93.2843 10 85V25C10 16.7157 16.7157 10 25 10H225C233.284 10 240 16.7157 240 25V85C240 93.2843 233.284 100 225 100Z" fill="white"/>
<path d="M25 0.75H224.98L226.259 0.783203C239.066 1.43783 249.25 12.0294 249.25 25V84.9805L249.217 86.2461C248.59 98.6424 238.653 108.582 226.259 109.216L224.98 109.25H25C12.0252 109.25 1.43158 99.0595 0.783203 86.2461L0.75 84.9805V25C0.750003 11.8164 11.2704 1.08983 24.374 0.757812L25 0.75ZM25 9.25C16.3015 9.25 9.25 16.3015 9.25 25V85C9.25 93.5627 16.083 100.53 24.5938 100.745L25 100.75H225C233.698 100.75 240.75 93.6985 240.75 85V25C240.75 16.3015 233.698 9.25 225 9.25H25ZM133.124 20.6436C144.767 20.6436 153.416 23.8283 159.158 29.6875C164.902 35.5494 167.849 44.2025 167.849 55.3682C167.849 66.5336 164.902 75.186 159.158 81.0479C153.416 86.9071 144.767 90.0918 133.124 90.0918C121.531 90.0917 112.907 86.9078 107.177 81.0488C101.444 75.1868 98.4972 66.5339 98.4971 55.3682C98.4971 44.2516 101.443 35.5974 107.177 29.7227C112.907 23.8511 121.532 20.6436 133.124 20.6436ZM44.2559 22.292V68.7178H47.9141C49.4183 68.7177 50.7472 68.431 51.9453 67.7148C53.1217 67.0117 54.1093 65.9302 55.0127 64.4395C55.0967 64.3367 55.145 64.2424 55.168 64.1963L55.1992 64.166L55.2471 64.085L79.9385 22.292H101.271L70.2432 75.332C67.9261 78.9029 65.588 82.1215 62.5635 84.457C59.5588 86.7772 55.8435 88.25 50.7246 88.25H24.627V22.292H44.2559ZM188.511 22.292L196.336 35.209L196.984 36.2803L197.623 35.2021L205.256 22.292H227.064L208.35 53.9199L208.125 54.2998L208.349 54.6807L228.039 88.25H206.606L197.908 73.9746L197.261 72.9111L196.623 73.9805L188.118 88.25H166.495L185.896 55.166L186.122 54.7803L185.892 54.3984L166.515 22.292H188.511ZM133.124 40.6611C128.852 40.6612 125.453 41.947 123.131 44.5049C120.82 47.051 119.678 50.7474 119.678 55.3682C119.678 59.9885 120.82 63.9084 123.107 66.6875C125.412 69.4867 128.81 71.0439 133.124 71.0439C137.48 71.0439 140.904 69.5155 143.224 66.7266C145.527 63.9575 146.668 60.0352 146.668 55.3682C146.668 50.7008 145.526 47.0018 143.199 44.4658C140.862 41.9191 137.438 40.6611 133.124 40.6611Z" stroke="black" stroke-opacity="0.15" stroke-width="1.5"/>
</svg>
