<svg width="250" height="250" viewBox="0 0 250 250" fill="none" xmlns="http://www.w3.org/2000/svg">
<mask id="path-1-inside-1_3035_129" fill="white">
<path d="M79.5108 21.5415H102.578L70.8846 75.7215C66.2323 82.8938 61.2892 89 50.7246 89H23.8769V21.5415H45.0062V67.9677H47.9138C50.7246 67.9677 52.6631 66.9015 54.4077 63.9938C54.5046 63.8969 54.5046 63.8 54.6015 63.7031L79.5108 21.5415Z"/>
<path d="M133.124 19.8938C156.677 19.8938 168.598 32.7846 168.598 55.3677C168.598 77.9508 156.677 90.8415 133.124 90.8415C109.669 90.8415 97.7474 77.9508 97.7474 55.3677C97.7474 32.8815 109.669 19.8938 133.124 19.8938ZM133.124 70.2938C141.46 70.2938 145.918 64.4785 145.918 55.3677C145.918 46.2569 141.46 41.4108 133.124 41.4108C124.886 41.4108 120.427 46.3538 120.427 55.3677C120.427 64.3815 124.886 70.2938 133.124 70.2938Z"/>
<path d="M208.995 54.3015L229.349 89H206.185L197.268 74.3646L188.545 89H165.186L185.249 54.7862L165.186 21.5415H188.932L196.977 34.82L204.828 21.5415H228.38L208.995 54.3015Z"/>
<path d="M43.3848 103.22C57.9648 103.22 65.3448 111.2 65.3448 125.18C65.3448 139.16 57.9648 147.14 43.3848 147.14C28.8648 147.14 21.4848 139.16 21.4848 125.18C21.4848 111.26 28.8648 103.22 43.3848 103.22ZM43.3848 134.42C48.5448 134.42 51.3048 130.82 51.3048 125.18C51.3048 119.54 48.5448 116.54 43.3848 116.54C38.2848 116.54 35.5248 119.6 35.5248 125.18C35.5248 130.76 38.2848 134.42 43.3848 134.42Z"/>
<path d="M107.202 104.24C119.022 104.24 124.602 110.18 124.602 121.28V146H111.462V122.06C111.462 119.06 110.142 117.2 106.482 117.2H102.822V146H90.2223V117.32H81.8823V146H68.8023V104.24H107.202Z"/>
<path d="M149.318 104.24C161.138 104.24 166.658 110.18 166.658 121.28V146H153.578V122.42C153.578 119.42 152.258 117.56 148.598 117.56H142.058V146H128.978V104.24H149.318Z"/>
<path d="M184.128 146H171.048V104.24H184.128V146Z"/>
<path d="M207.038 103.22C218.018 103.22 225.578 108.38 225.578 120.2V146H212.498V135.8H201.578V146H188.498V120.2C188.498 108.68 195.998 103.22 207.038 103.22ZM201.578 126.02H212.498V120.2C212.498 117.44 211.298 115.28 207.038 115.28C202.718 115.28 201.578 117.44 201.578 120.2V126.02Z"/>
<path d="M78.695 204.225C84.68 206.01 88.565 212.52 88.565 218.925V231H65.78V216.72C65.78 210.63 62.63 208.425 56.645 208.425H46.25V231H23.36V185.85C23.36 165.69 37.535 156.135 56.75 156.135C77.75 156.135 89.51 166.95 89.51 184.905C89.51 195.195 84.68 201.81 78.695 204.225ZM55.805 193.62C62.315 193.62 66.095 192.465 66.095 185.85C66.095 181.755 62.84 178.185 55.91 178.185C49.925 178.185 46.25 181.02 46.25 185.85V193.62H55.805Z"/>
<path d="M119.175 208.74H153.72V231H96.285V157.92H153.405V180.075H119.175V186.795H148.68V201.285H119.175V208.74Z"/>
<path d="M203.827 193.41L225.877 231H200.782L191.122 215.145L181.672 231H156.367L178.102 193.935L156.367 157.92H182.092L190.807 172.305L199.312 157.92H224.827L203.827 193.41Z"/>
<path fill-rule="evenodd" clip-rule="evenodd" d="M225 250H25C11.6236 250 0.702643 239.494 0.0341797 226.284L0 225V25C3.22139e-06 11.1929 11.1929 2.0133e-07 25 0H225L226.284 0.0341797C239.494 0.702646 250 11.6236 250 25V225L249.966 226.284C249.319 239.069 239.069 249.319 226.284 249.966L225 250ZM225 240H25C16.7157 240 10 233.284 10 225V25C10 16.7157 16.7157 10 25 10H225C233.284 10 240 16.7157 240 25V225C240 233.284 233.284 240 225 240Z"/>
</mask>
<path d="M79.5108 21.5415H102.578L70.8846 75.7215C66.2323 82.8938 61.2892 89 50.7246 89H23.8769V21.5415H45.0062V67.9677H47.9138C50.7246 67.9677 52.6631 66.9015 54.4077 63.9938C54.5046 63.8969 54.5046 63.8 54.6015 63.7031L79.5108 21.5415Z" fill="white"/>
<path d="M133.124 19.8938C156.677 19.8938 168.598 32.7846 168.598 55.3677C168.598 77.9508 156.677 90.8415 133.124 90.8415C109.669 90.8415 97.7474 77.9508 97.7474 55.3677C97.7474 32.8815 109.669 19.8938 133.124 19.8938ZM133.124 70.2938C141.46 70.2938 145.918 64.4785 145.918 55.3677C145.918 46.2569 141.46 41.4108 133.124 41.4108C124.886 41.4108 120.427 46.3538 120.427 55.3677C120.427 64.3815 124.886 70.2938 133.124 70.2938Z" fill="white"/>
<path d="M208.995 54.3015L229.349 89H206.185L197.268 74.3646L188.545 89H165.186L185.249 54.7862L165.186 21.5415H188.932L196.977 34.82L204.828 21.5415H228.38L208.995 54.3015Z" fill="white"/>
<path d="M43.3848 103.22C57.9648 103.22 65.3448 111.2 65.3448 125.18C65.3448 139.16 57.9648 147.14 43.3848 147.14C28.8648 147.14 21.4848 139.16 21.4848 125.18C21.4848 111.26 28.8648 103.22 43.3848 103.22ZM43.3848 134.42C48.5448 134.42 51.3048 130.82 51.3048 125.18C51.3048 119.54 48.5448 116.54 43.3848 116.54C38.2848 116.54 35.5248 119.6 35.5248 125.18C35.5248 130.76 38.2848 134.42 43.3848 134.42Z" fill="white"/>
<path d="M107.202 104.24C119.022 104.24 124.602 110.18 124.602 121.28V146H111.462V122.06C111.462 119.06 110.142 117.2 106.482 117.2H102.822V146H90.2223V117.32H81.8823V146H68.8023V104.24H107.202Z" fill="white"/>
<path d="M149.318 104.24C161.138 104.24 166.658 110.18 166.658 121.28V146H153.578V122.42C153.578 119.42 152.258 117.56 148.598 117.56H142.058V146H128.978V104.24H149.318Z" fill="white"/>
<path d="M184.128 146H171.048V104.24H184.128V146Z" fill="white"/>
<path d="M207.038 103.22C218.018 103.22 225.578 108.38 225.578 120.2V146H212.498V135.8H201.578V146H188.498V120.2C188.498 108.68 195.998 103.22 207.038 103.22ZM201.578 126.02H212.498V120.2C212.498 117.44 211.298 115.28 207.038 115.28C202.718 115.28 201.578 117.44 201.578 120.2V126.02Z" fill="white"/>
<path d="M78.695 204.225C84.68 206.01 88.565 212.52 88.565 218.925V231H65.78V216.72C65.78 210.63 62.63 208.425 56.645 208.425H46.25V231H23.36V185.85C23.36 165.69 37.535 156.135 56.75 156.135C77.75 156.135 89.51 166.95 89.51 184.905C89.51 195.195 84.68 201.81 78.695 204.225ZM55.805 193.62C62.315 193.62 66.095 192.465 66.095 185.85C66.095 181.755 62.84 178.185 55.91 178.185C49.925 178.185 46.25 181.02 46.25 185.85V193.62H55.805Z" fill="white"/>
<path d="M119.175 208.74H153.72V231H96.285V157.92H153.405V180.075H119.175V186.795H148.68V201.285H119.175V208.74Z" fill="white"/>
<path d="M203.827 193.41L225.877 231H200.782L191.122 215.145L181.672 231H156.367L178.102 193.935L156.367 157.92H182.092L190.807 172.305L199.312 157.92H224.827L203.827 193.41Z" fill="white"/>
<path fill-rule="evenodd" clip-rule="evenodd" d="M225 250H25C11.6236 250 0.702643 239.494 0.0341797 226.284L0 225V25C3.22139e-06 11.1929 11.1929 2.0133e-07 25 0H225L226.284 0.0341797C239.494 0.702646 250 11.6236 250 25V225L249.966 226.284C249.319 239.069 239.069 249.319 226.284 249.966L225 250ZM225 240H25C16.7157 240 10 233.284 10 225V25C10 16.7157 16.7157 10 25 10H225C233.284 10 240 16.7157 240 25V225C240 233.284 233.284 240 225 240Z" fill="white"/>
<path d="M79.5108 21.5415H102.578L70.8846 75.7215C66.2323 82.8938 61.2892 89 50.7246 89H23.8769V21.5415H45.0062V67.9677H47.9138C50.7246 67.9677 52.6631 66.9015 54.4077 63.9938C54.5046 63.8969 54.5046 63.8 54.6015 63.7031L79.5108 21.5415Z" stroke="black" stroke-opacity="0.15" stroke-width="3" mask="url(#path-1-inside-1_3035_129)"/>
<path d="M133.124 19.8938C156.677 19.8938 168.598 32.7846 168.598 55.3677C168.598 77.9508 156.677 90.8415 133.124 90.8415C109.669 90.8415 97.7474 77.9508 97.7474 55.3677C97.7474 32.8815 109.669 19.8938 133.124 19.8938ZM133.124 70.2938C141.46 70.2938 145.918 64.4785 145.918 55.3677C145.918 46.2569 141.46 41.4108 133.124 41.4108C124.886 41.4108 120.427 46.3538 120.427 55.3677C120.427 64.3815 124.886 70.2938 133.124 70.2938Z" stroke="black" stroke-opacity="0.15" stroke-width="3" mask="url(#path-1-inside-1_3035_129)"/>
<path d="M208.995 54.3015L229.349 89H206.185L197.268 74.3646L188.545 89H165.186L185.249 54.7862L165.186 21.5415H188.932L196.977 34.82L204.828 21.5415H228.38L208.995 54.3015Z" stroke="black" stroke-opacity="0.15" stroke-width="3" mask="url(#path-1-inside-1_3035_129)"/>
<path d="M43.3848 103.22C57.9648 103.22 65.3448 111.2 65.3448 125.18C65.3448 139.16 57.9648 147.14 43.3848 147.14C28.8648 147.14 21.4848 139.16 21.4848 125.18C21.4848 111.26 28.8648 103.22 43.3848 103.22ZM43.3848 134.42C48.5448 134.42 51.3048 130.82 51.3048 125.18C51.3048 119.54 48.5448 116.54 43.3848 116.54C38.2848 116.54 35.5248 119.6 35.5248 125.18C35.5248 130.76 38.2848 134.42 43.3848 134.42Z" stroke="black" stroke-opacity="0.15" stroke-width="3" mask="url(#path-1-inside-1_3035_129)"/>
<path d="M107.202 104.24C119.022 104.24 124.602 110.18 124.602 121.28V146H111.462V122.06C111.462 119.06 110.142 117.2 106.482 117.2H102.822V146H90.2223V117.32H81.8823V146H68.8023V104.24H107.202Z" stroke="black" stroke-opacity="0.15" stroke-width="3" mask="url(#path-1-inside-1_3035_129)"/>
<path d="M149.318 104.24C161.138 104.24 166.658 110.18 166.658 121.28V146H153.578V122.42C153.578 119.42 152.258 117.56 148.598 117.56H142.058V146H128.978V104.24H149.318Z" stroke="black" stroke-opacity="0.15" stroke-width="3" mask="url(#path-1-inside-1_3035_129)"/>
<path d="M184.128 146H171.048V104.24H184.128V146Z" stroke="black" stroke-opacity="0.15" stroke-width="3" mask="url(#path-1-inside-1_3035_129)"/>
<path d="M207.038 103.22C218.018 103.22 225.578 108.38 225.578 120.2V146H212.498V135.8H201.578V146H188.498V120.2C188.498 108.68 195.998 103.22 207.038 103.22ZM201.578 126.02H212.498V120.2C212.498 117.44 211.298 115.28 207.038 115.28C202.718 115.28 201.578 117.44 201.578 120.2V126.02Z" stroke="black" stroke-opacity="0.15" stroke-width="3" mask="url(#path-1-inside-1_3035_129)"/>
<path d="M78.695 204.225C84.68 206.01 88.565 212.52 88.565 218.925V231H65.78V216.72C65.78 210.63 62.63 208.425 56.645 208.425H46.25V231H23.36V185.85C23.36 165.69 37.535 156.135 56.75 156.135C77.75 156.135 89.51 166.95 89.51 184.905C89.51 195.195 84.68 201.81 78.695 204.225ZM55.805 193.62C62.315 193.62 66.095 192.465 66.095 185.85C66.095 181.755 62.84 178.185 55.91 178.185C49.925 178.185 46.25 181.02 46.25 185.85V193.62H55.805Z" stroke="black" stroke-opacity="0.15" stroke-width="3" mask="url(#path-1-inside-1_3035_129)"/>
<path d="M119.175 208.74H153.72V231H96.285V157.92H153.405V180.075H119.175V186.795H148.68V201.285H119.175V208.74Z" stroke="black" stroke-opacity="0.15" stroke-width="3" mask="url(#path-1-inside-1_3035_129)"/>
<path d="M203.827 193.41L225.877 231H200.782L191.122 215.145L181.672 231H156.367L178.102 193.935L156.367 157.92H182.092L190.807 172.305L199.312 157.92H224.827L203.827 193.41Z" stroke="black" stroke-opacity="0.15" stroke-width="3" mask="url(#path-1-inside-1_3035_129)"/>
<path fill-rule="evenodd" clip-rule="evenodd" d="M225 250H25C11.6236 250 0.702643 239.494 0.0341797 226.284L0 225V25C3.22139e-06 11.1929 11.1929 2.0133e-07 25 0H225L226.284 0.0341797C239.494 0.702646 250 11.6236 250 25V225L249.966 226.284C249.319 239.069 239.069 249.319 226.284 249.966L225 250ZM225 240H25C16.7157 240 10 233.284 10 225V25C10 16.7157 16.7157 10 25 10H225C233.284 10 240 16.7157 240 25V225C240 233.284 233.284 240 225 240Z" stroke="black" stroke-opacity="0.15" stroke-width="3" mask="url(#path-1-inside-1_3035_129)"/>
</svg>
